<svg width="500" height="500" viewBox="0 0 500 500" fill="none" xmlns="http://www.w3.org/2000/svg">
<path d="M473 246.207C473 308.862 447.743 366.331 407.512 407.311C367.27 448.295 310.851 474 249.5 474C188.149 474 131.73 448.295 91.4879 407.311C51.2579 366.324 26 308.862 26 246.207C26 183.722 51.1903 128.365 91.3993 89.4799C131.611 50.5909 187.998 27 249.5 27C311.002 27 367.377 50.5792 407.58 89.4659C447.798 128.355 473 183.722 473 246.207Z" stroke="black" stroke-width="4"/>
<path d="M173.217 327.502L157.395 326.745L182.496 335.115C182.496 335.115 203.289 340.439 214.682 339.487C230.792 338.127 240.751 335.875 254.073 326.632C266.979 317.675 279.536 295.357 279.536 295.357C286.549 286.012 297.648 267.945 307.04 261.05C313.644 256.207 318.293 256.219 320.129 261.172C323.821 257.825 330.186 257.738 334.867 260.95C340.871 265.072 337.271 273.677 337.271 273.677C337.271 273.677 340.871 265.072 348.917 266.165C355.74 267.09 361.806 274.275 358.201 282.88C354.594 291.482 327.104 353.675 290.53 381.359C258.512 405.59 215.982 401.422 202.257 398.322C188.534 395.229 167.406 388.52 146.34 378.997C115.256 364.948 86.7136 340.33 69.7204 333.047L69.6956 333.032C47.8304 323.66 31.6541 316.722 14 314.733C14 314.733 17.8992 300.332 27.8094 290.977C37.3334 281.99 43.8197 277.89 55.6758 272.427C73.9217 264.028 86.0749 262.152 106.116 262.735C124.765 263.279 135.205 267.018 152.627 273.75C165.607 278.765 170.592 283.437 183.939 287.349C197.958 291.465 207.099 292.093 221.649 293.292C237.164 294.574 261.404 296.207 261.404 296.207C261.404 296.207 254.197 313.419 237.498 321.902C220.805 330.387 194.142 327.6 194.142 327.6L173.217 327.502Z" fill="white"/>
<path d="M338.271 273.677C338.271 273.677 289.968 358.535 235.616 362.032C194.299 364.692 158.395 326.745 158.395 326.745M338.271 273.677C338.271 273.677 341.871 265.072 349.917 266.165C356.74 267.09 362.806 274.275 359.201 282.88C355.594 291.482 328.104 353.675 291.53 381.359C259.512 405.59 216.982 401.422 203.257 398.322C189.534 395.229 168.406 388.52 147.34 378.997C116.256 364.948 87.7136 340.33 70.7204 333.047C48.8476 323.668 32.6616 316.722 15 314.733C15 314.733 18.8992 300.332 28.8094 290.977C38.3334 281.99 44.8197 277.89 56.6758 272.427C74.9217 264.028 87.0749 262.152 107.116 262.735C125.765 263.279 136.205 267.018 153.627 273.75C166.607 278.765 171.592 283.437 184.939 287.349C198.958 291.465 208.099 292.093 222.649 293.292C238.164 294.574 262.404 296.207 262.404 296.207C262.404 296.207 255.197 313.419 238.498 321.902C221.805 330.387 195.142 327.6 195.142 327.6L174.217 327.502L158.395 326.745M338.271 273.677C338.271 273.677 341.871 265.072 335.867 260.95C331.186 257.738 324.821 257.825 321.129 261.172M158.395 326.745C158.395 326.745 183.63 341.462 198.506 345.417C208.629 348.11 215.212 351.607 225.647 350.755C248.723 348.883 267.08 334.878 277.772 322.27C288.463 309.66 312.747 275.445 321.129 261.172M158.395 326.745L183.496 335.115C183.496 335.115 204.289 340.439 215.682 339.487C231.792 338.127 241.751 335.875 255.073 326.632C267.979 317.675 280.536 295.357 280.536 295.357C287.549 286.012 298.648 267.945 308.04 261.05C314.644 256.207 319.293 256.219 321.129 261.172" stroke="black" stroke-width="4"/>
<path d="M340.306 183.352L355.708 187.084L332.604 174.127C332.604 174.127 313.163 164.965 301.795 163.757C285.712 162.05 275.515 162.377 260.713 168.942C246.379 175.307 229.908 194.859 229.908 194.859C221.28 202.714 207.038 218.369 196.531 223.364C189.148 226.874 184.575 225.987 183.694 220.772C179.444 223.364 173.179 222.255 169.176 218.214C164.042 213.028 169.174 205.255 169.174 205.255C169.174 205.255 164.042 213.028 156.34 210.439C149.807 208.239 145.183 200.037 150.319 192.265C155.449 184.492 193.981 128.584 235.04 108.299C270.985 90.542 311.99 102.665 324.898 108.297C337.803 113.932 357.319 124.509 376.246 137.842C404.182 157.512 427.657 187.084 442.998 197.449L443.025 197.465C462.765 210.804 477.373 220.669 494.347 225.956C494.347 225.956 487.851 239.367 476.376 246.687C465.356 253.717 458.226 256.522 445.571 259.647C426.087 264.454 413.797 264.004 394.22 259.647C376.001 255.592 366.441 249.949 350.574 240.047C338.747 232.669 334.717 227.139 322.333 220.772C309.321 214.084 300.457 211.739 286.391 207.815C271.384 203.63 247.876 197.449 247.876 197.449C247.876 197.449 258.145 181.9 276.122 176.719C294.093 171.535 319.768 179.307 319.768 179.307L340.306 183.352Z" fill="white"/>
<path d="M169.174 205.255C169.174 205.255 232.347 131.017 286.391 137.842C327.47 143.027 355.708 187.084 355.708 187.084M169.174 205.255C169.174 205.255 164.042 213.028 156.34 210.439C149.807 208.239 145.183 200.037 150.319 192.265C155.449 184.492 193.981 128.584 235.04 108.299C270.985 90.542 311.99 102.665 324.898 108.297C337.803 113.932 357.319 124.509 376.246 137.842C404.182 157.512 427.657 187.084 442.998 197.449C462.755 210.794 477.366 220.667 494.347 225.956C494.347 225.956 487.851 239.367 476.376 246.687C465.356 253.717 458.226 256.522 445.571 259.647C426.087 264.454 413.797 264.004 394.22 259.647C376.001 255.592 366.441 249.949 350.574 240.047C338.747 232.669 334.717 227.139 322.333 220.772C309.321 214.084 300.457 211.739 286.391 207.815C271.384 203.63 247.876 197.449 247.876 197.449C247.876 197.449 258.145 181.9 276.122 176.719C294.093 171.535 319.768 179.307 319.768 179.307L340.306 183.352L355.708 187.084M169.174 205.255C169.174 205.255 164.042 213.028 169.176 218.214C173.179 222.255 179.444 223.364 183.694 220.772M355.708 187.084C355.708 187.084 333.644 167.859 319.768 161.167C310.318 156.615 304.503 151.934 294.093 150.799C271.079 148.287 250.444 158.574 237.607 168.942C224.771 179.307 194.575 208.335 183.694 220.772M355.708 187.084L332.604 174.127C332.604 174.127 313.163 164.965 301.795 163.757C285.712 162.05 275.515 162.377 260.713 168.942C246.379 175.307 229.908 194.859 229.908 194.859C221.28 202.714 207.038 218.369 196.531 223.364C189.148 226.874 184.575 225.987 183.694 220.772" stroke="black" stroke-width="4"/>
<path d="M485 245.487C485 311.365 458.443 371.791 416.142 414.879C373.83 457.973 314.507 485 250 485C185.493 485 126.17 457.973 83.8575 414.879C41.5575 371.784 15 311.365 15 245.487C15 179.786 41.4865 121.58 83.7644 80.6947C126.045 39.8047 185.334 15 250 15C314.666 15 373.943 39.7925 416.214 80.68C458.501 121.57 485 179.786 485 245.487Z" stroke="white" stroke-width="20"/>
<path d="M487 245.939C487 312.518 460.161 373.587 417.409 417.133C374.647 460.686 314.693 488 249.5 488C184.307 488 124.353 460.686 81.59 417.133C38.84 373.58 12 312.518 12 245.939C12 179.539 38.7683 120.714 81.4959 79.3936C124.226 38.0686 184.146 13 249.5 13C314.854 13 374.762 38.0563 417.482 79.3787C460.219 120.704 487 179.539 487 245.939Z" stroke="white" stroke-width="20"/>
<path d="M497 245.746C497 315.129 469.03 378.769 424.48 424.15C379.917 469.535 317.439 498 249.5 498C181.561 498 119.083 469.535 74.5201 424.15C29.9701 378.762 2 315.129 2 245.746C2 176.551 29.8953 115.249 74.4221 72.1891C118.951 29.1241 181.394 3 249.5 3C317.606 3 380.035 29.1112 424.555 72.1737C469.091 115.239 497 176.551 497 245.746Z" stroke="black" stroke-width="4"/>
</svg>
