<svg width="500" height="650" viewBox="0 0 500 650" fill="none" xmlns="http://www.w3.org/2000/svg">
<g clip-path="url(#clip0_483_16)">
<path d="M475 250C475 125.736 374.264 25 250 25C125.736 25 25 125.736 25 250C25 374.264 125.736 475 250 475C374.264 475 475 374.264 475 250Z" fill="#2A52BE"/>
<path d="M473 246.207C473 308.862 447.743 366.331 407.512 407.311C367.27 448.295 310.851 474 249.5 474C188.149 474 131.73 448.295 91.4879 407.311C51.2579 366.324 26 308.862 26 246.207C26 183.722 51.1903 128.365 91.3993 89.4799C131.611 50.5909 187.998 27 249.5 27C311.002 27 367.377 50.5792 407.58 89.4659C447.798 128.355 473 183.722 473 246.207Z" stroke="black" stroke-width="4"/>
<path d="M173.217 327.502L157.395 326.745L182.496 335.115C182.496 335.115 203.289 340.439 214.682 339.487C230.792 338.127 240.751 335.875 254.073 326.632C266.979 317.675 279.536 295.357 279.536 295.357C286.549 286.012 297.648 267.945 307.04 261.05C313.644 256.207 318.293 256.219 320.129 261.172C323.821 257.825 330.186 257.738 334.867 260.95C340.871 265.072 337.271 273.677 337.271 273.677C337.271 273.677 340.871 265.072 348.917 266.165C355.74 267.09 361.806 274.275 358.201 282.88C354.594 291.482 327.104 353.675 290.53 381.359C258.512 405.59 215.982 401.422 202.257 398.322C188.534 395.229 167.406 388.52 146.34 378.997C115.256 364.948 86.7136 340.33 69.7204 333.047L69.6956 333.032C47.8304 323.66 31.6541 316.722 14 314.733C14 314.733 17.8992 300.332 27.8094 290.977C37.3334 281.99 43.8197 277.89 55.6758 272.427C73.9217 264.028 86.0749 262.152 106.116 262.735C124.765 263.279 135.205 267.018 152.627 273.75C165.607 278.765 170.592 283.437 183.939 287.349C197.958 291.465 207.099 292.093 221.649 293.292C237.164 294.574 261.404 296.207 261.404 296.207C261.404 296.207 254.197 313.419 237.498 321.902C220.805 330.387 194.142 327.6 194.142 327.6L173.217 327.502Z" fill="white"/>
<path d="M338.271 273.677C338.271 273.677 289.968 358.535 235.616 362.032C194.299 364.692 158.395 326.745 158.395 326.745M338.271 273.677C338.271 273.677 341.871 265.072 349.917 266.165C356.74 267.09 362.806 274.275 359.201 282.88C355.594 291.482 328.104 353.675 291.53 381.359C259.512 405.59 216.982 401.422 203.257 398.322C189.534 395.229 168.406 388.52 147.34 378.997C116.256 364.948 87.7136 340.33 70.7204 333.047C48.8476 323.668 32.6616 316.722 15 314.733C15 314.733 18.8992 300.332 28.8094 290.977C38.3334 281.99 44.8197 277.89 56.6758 272.427C74.9217 264.028 87.0749 262.152 107.116 262.735C125.765 263.279 136.205 267.018 153.627 273.75C166.607 278.765 171.592 283.437 184.939 287.349C198.958 291.465 208.099 292.093 222.649 293.292C238.164 294.574 262.404 296.207 262.404 296.207C262.404 296.207 255.197 313.419 238.498 321.902C221.805 330.387 195.142 327.6 195.142 327.6L174.217 327.502L158.395 326.745M338.271 273.677C338.271 273.677 341.871 265.072 335.867 260.95C331.186 257.738 324.821 257.825 321.129 261.172M158.395 326.745C158.395 326.745 183.63 341.462 198.506 345.417C208.629 348.11 215.212 351.607 225.647 350.755C248.723 348.883 267.08 334.878 277.772 322.27C288.463 309.66 312.747 275.445 321.129 261.172M158.395 326.745L183.496 335.115C183.496 335.115 204.289 340.439 215.682 339.487C231.792 338.127 241.751 335.875 255.073 326.632C267.979 317.675 280.536 295.357 280.536 295.357C287.549 286.012 298.648 267.945 308.04 261.05C314.644 256.207 319.293 256.219 321.129 261.172" stroke="black" stroke-width="4"/>
<path d="M340.306 183.352L355.708 187.084L332.604 174.127C332.604 174.127 313.163 164.965 301.795 163.757C285.712 162.05 275.515 162.377 260.713 168.942C246.379 175.307 229.908 194.859 229.908 194.859C221.28 202.714 207.038 218.369 196.531 223.364C189.148 226.874 184.575 225.987 183.694 220.772C179.444 223.364 173.179 222.255 169.176 218.214C164.042 213.028 169.174 205.255 169.174 205.255C169.174 205.255 164.042 213.028 156.34 210.439C149.807 208.239 145.183 200.037 150.319 192.265C155.449 184.492 193.981 128.584 235.04 108.299C270.985 90.542 311.99 102.665 324.898 108.297C337.803 113.932 357.319 124.509 376.246 137.842C404.182 157.512 427.657 187.084 442.998 197.449L443.025 197.465C462.765 210.804 477.373 220.669 494.347 225.956C494.347 225.956 487.851 239.367 476.376 246.687C465.356 253.717 458.226 256.522 445.571 259.647C426.087 264.454 413.797 264.004 394.22 259.647C376.001 255.592 366.441 249.949 350.574 240.047C338.747 232.669 334.717 227.139 322.333 220.772C309.321 214.084 300.457 211.739 286.391 207.815C271.384 203.63 247.876 197.449 247.876 197.449C247.876 197.449 258.145 181.9 276.122 176.719C294.093 171.535 319.768 179.307 319.768 179.307L340.306 183.352Z" fill="white"/>
<path d="M169.174 205.255C169.174 205.255 232.347 131.017 286.391 137.842C327.47 143.027 355.708 187.084 355.708 187.084M169.174 205.255C169.174 205.255 164.042 213.028 156.34 210.439C149.807 208.239 145.183 200.037 150.319 192.265C155.449 184.492 193.981 128.584 235.04 108.299C270.985 90.542 311.99 102.665 324.898 108.297C337.803 113.932 357.319 124.509 376.246 137.842C404.182 157.512 427.657 187.084 442.998 197.449C462.755 210.794 477.366 220.667 494.347 225.956C494.347 225.956 487.851 239.367 476.376 246.687C465.356 253.717 458.226 256.522 445.571 259.647C426.087 264.454 413.797 264.004 394.22 259.647C376.001 255.592 366.441 249.949 350.574 240.047C338.747 232.669 334.717 227.139 322.333 220.772C309.321 214.084 300.457 211.739 286.391 207.815C271.384 203.63 247.876 197.449 247.876 197.449C247.876 197.449 258.145 181.9 276.122 176.719C294.093 171.535 319.768 179.307 319.768 179.307L340.306 183.352L355.708 187.084M169.174 205.255C169.174 205.255 164.042 213.028 169.176 218.214C173.179 222.255 179.444 223.364 183.694 220.772M355.708 187.084C355.708 187.084 333.644 167.859 319.768 161.167C310.318 156.615 304.503 151.934 294.093 150.799C271.079 148.287 250.444 158.574 237.607 168.942C224.771 179.307 194.575 208.335 183.694 220.772M355.708 187.084L332.604 174.127C332.604 174.127 313.163 164.965 301.795 163.757C285.712 162.05 275.515 162.377 260.713 168.942C246.379 175.307 229.908 194.859 229.908 194.859C221.28 202.714 207.038 218.369 196.531 223.364C189.148 226.874 184.575 225.987 183.694 220.772" stroke="black" stroke-width="4"/>
<path d="M485 245.487C485 311.365 458.443 371.791 416.142 414.879C373.83 457.973 314.507 485 250 485C185.493 485 126.17 457.973 83.8575 414.879C41.5575 371.784 15 311.365 15 245.487C15 179.786 41.4865 121.58 83.7644 80.6947C126.045 39.8047 185.334 15 250 15C314.666 15 373.943 39.7925 416.214 80.68C458.501 121.57 485 179.786 485 245.487Z" stroke="white" stroke-width="20"/>
<path d="M487 245.939C487 312.518 460.161 373.587 417.409 417.133C374.647 460.686 314.693 488 249.5 488C184.307 488 124.353 460.686 81.59 417.133C38.84 373.58 12 312.518 12 245.939C12 179.539 38.7683 120.714 81.4959 79.3936C124.226 38.0686 184.146 13 249.5 13C314.854 13 374.762 38.0563 417.482 79.3787C460.219 120.704 487 179.539 487 245.939Z" stroke="white" stroke-width="20"/>
<path d="M497 245.746C497 315.129 469.03 378.769 424.48 424.15C379.917 469.535 317.439 498 249.5 498C181.561 498 119.083 469.535 74.5201 424.15C29.9701 378.762 2 315.129 2 245.746C2 176.551 29.8953 115.249 74.4221 72.1891C118.951 29.1241 181.394 3 249.5 3C317.606 3 380.035 29.1112 424.555 72.1737C469.091 115.239 497 176.551 497 245.746Z" stroke="black" stroke-width="4"/>
<path d="M3.58958 633V582.091H20.7913C24.7851 582.091 28.0498 582.812 30.5853 584.254C33.1374 585.679 35.0266 587.609 36.2529 590.045C37.4793 592.482 38.0924 595.199 38.0924 598.199C38.0924 601.198 37.4793 603.924 36.2529 606.377C35.0432 608.83 33.1705 610.785 30.635 612.244C28.0995 613.685 24.8514 614.406 20.8907 614.406H8.56117V608.938H20.6919C23.4262 608.938 25.622 608.465 27.2792 607.521C28.9364 606.576 30.1379 605.3 30.8836 603.692C31.6459 602.068 32.0271 600.237 32.0271 598.199C32.0271 596.161 31.6459 594.338 30.8836 592.73C30.1379 591.123 28.9281 589.863 27.2544 588.952C25.5806 588.024 23.3599 587.56 20.5924 587.56H9.75435V633H3.58958ZM48.0232 633V582.091H65.2249C69.2021 582.091 72.4668 582.77 75.0189 584.129C77.571 585.472 79.4602 587.319 80.6865 589.673C81.9129 592.026 82.526 594.702 82.526 597.702C82.526 600.701 81.9129 603.361 80.6865 605.681C79.4602 608.001 77.5793 609.824 75.0438 611.15C72.5083 612.459 69.2684 613.114 65.3243 613.114H51.4039V607.545H65.1254C67.8432 607.545 70.0307 607.148 71.6879 606.352C73.3617 605.557 74.5715 604.43 75.3172 602.972C76.0795 601.497 76.4607 599.74 76.4607 597.702C76.4607 595.663 76.0795 593.882 75.3172 592.357C74.5549 590.833 73.3369 589.656 71.6631 588.827C69.9893 587.982 67.777 587.56 65.026 587.56H54.1879V633H48.0232ZM71.9862 610.131L84.5146 633H77.3556L65.026 610.131H71.9862ZM92.7986 633V582.091H123.523V587.56H98.9633V604.761H121.932V610.23H98.9633V627.531H123.921V633H92.7986ZM175.6 598H169.436C169.071 596.227 168.433 594.669 167.522 593.327C166.627 591.984 165.533 590.857 164.24 589.946C162.964 589.018 161.547 588.322 159.99 587.858C158.432 587.394 156.808 587.162 155.117 587.162C152.035 587.162 149.243 587.941 146.74 589.499C144.255 591.056 142.274 593.352 140.799 596.384C139.341 599.417 138.612 603.137 138.612 607.545C138.612 611.954 139.341 615.674 140.799 618.707C142.274 621.739 144.255 624.035 146.74 625.592C149.243 627.15 152.035 627.929 155.117 627.929C156.808 627.929 158.432 627.697 159.99 627.233C161.547 626.769 162.964 626.081 164.24 625.17C165.533 624.242 166.627 623.107 167.522 621.764C168.433 620.405 169.071 618.848 169.436 617.091H175.6C175.136 619.693 174.291 622.021 173.065 624.076C171.839 626.131 170.314 627.879 168.491 629.321C166.668 630.746 164.621 631.832 162.351 632.577C160.097 633.323 157.686 633.696 155.117 633.696C150.776 633.696 146.914 632.635 143.534 630.514C140.153 628.393 137.493 625.377 135.554 621.466C133.615 617.555 132.646 612.915 132.646 607.545C132.646 602.176 133.615 597.536 135.554 593.625C137.493 589.714 140.153 586.698 143.534 584.577C146.914 582.455 150.776 581.395 155.117 581.395C157.686 581.395 160.097 581.768 162.351 582.513C164.621 583.259 166.668 584.353 168.491 585.795C170.314 587.22 171.839 588.96 173.065 591.015C174.291 593.053 175.136 595.382 175.6 598ZM191.727 582.091V633H185.562V582.091H191.727ZM247.042 607.545C247.042 612.915 246.073 617.555 244.134 621.466C242.195 625.377 239.535 628.393 236.154 630.514C232.774 632.635 228.912 633.696 224.571 633.696C220.229 633.696 216.367 632.635 212.987 630.514C209.606 628.393 206.946 625.377 205.007 621.466C203.068 617.555 202.099 612.915 202.099 607.545C202.099 602.176 203.068 597.536 205.007 593.625C206.946 589.714 209.606 586.698 212.987 584.577C216.367 582.455 220.229 581.395 224.571 581.395C228.912 581.395 232.774 582.455 236.154 584.577C239.535 586.698 242.195 589.714 244.134 593.625C246.073 597.536 247.042 602.176 247.042 607.545ZM241.076 607.545C241.076 603.137 240.339 599.417 238.864 596.384C237.406 593.352 235.425 591.056 232.923 589.499C230.437 587.941 227.653 587.162 224.571 587.162C221.488 587.162 218.696 587.941 216.193 589.499C213.708 591.056 211.727 593.352 210.252 596.384C208.794 599.417 208.065 603.137 208.065 607.545C208.065 611.954 208.794 615.674 210.252 618.707C211.727 621.739 213.708 624.035 216.193 625.592C218.696 627.15 221.488 627.929 224.571 627.929C227.653 627.929 230.437 627.15 232.923 625.592C235.425 624.035 237.406 621.739 238.864 618.707C240.339 615.674 241.076 611.954 241.076 607.545ZM296.584 582.091H302.749V618.483C302.749 621.731 302.152 624.49 300.959 626.761C299.766 629.031 298.084 630.754 295.913 631.931C293.742 633.108 291.182 633.696 288.232 633.696C285.448 633.696 282.97 633.191 280.799 632.18C278.628 631.152 276.921 629.694 275.679 627.805C274.436 625.915 273.814 623.67 273.814 621.068H279.88C279.88 622.51 280.236 623.769 280.948 624.847C281.678 625.907 282.672 626.736 283.931 627.332C285.191 627.929 286.624 628.227 288.232 628.227C290.005 628.227 291.513 627.854 292.756 627.109C293.999 626.363 294.943 625.269 295.59 623.827C296.253 622.369 296.584 620.588 296.584 618.483V582.091ZM348.512 582.091H354.677V615.798C354.677 619.278 353.857 622.386 352.216 625.12C350.592 627.838 348.297 629.984 345.331 631.558C342.364 633.116 338.884 633.895 334.89 633.895C330.896 633.895 327.416 633.116 324.45 631.558C321.483 629.984 319.18 627.838 317.539 625.12C315.915 622.386 315.103 619.278 315.103 615.798V582.091H321.268V615.301C321.268 617.787 321.815 619.999 322.909 621.938C324.002 623.861 325.56 625.377 327.582 626.487C329.62 627.581 332.056 628.128 334.89 628.128C337.724 628.128 340.16 627.581 342.198 626.487C344.237 625.377 345.795 623.861 346.872 621.938C347.965 619.999 348.512 617.787 348.512 615.301V582.091ZM394.829 594.818C394.531 592.299 393.321 590.344 391.2 588.952C389.078 587.56 386.477 586.864 383.394 586.864C381.14 586.864 379.168 587.228 377.478 587.957C375.804 588.687 374.495 589.689 373.551 590.965C372.622 592.241 372.158 593.691 372.158 595.315C372.158 596.674 372.482 597.843 373.128 598.82C373.791 599.781 374.636 600.585 375.663 601.232C376.691 601.861 377.768 602.383 378.895 602.798C380.022 603.195 381.058 603.518 382.002 603.767L387.173 605.159C388.498 605.507 389.973 605.988 391.597 606.601C393.238 607.214 394.804 608.051 396.296 609.112C397.804 610.156 399.046 611.498 400.024 613.138C401.002 614.779 401.491 616.793 401.491 619.179C401.491 621.93 400.77 624.416 399.328 626.636C397.903 628.857 395.815 630.622 393.064 631.931C390.33 633.24 387.007 633.895 383.096 633.895C379.45 633.895 376.293 633.307 373.625 632.13C370.974 630.953 368.886 629.313 367.361 627.208C365.853 625.103 364.999 622.659 364.801 619.875H371.164C371.33 621.797 371.976 623.388 373.103 624.648C374.247 625.891 375.688 626.819 377.428 627.432C379.185 628.028 381.074 628.327 383.096 628.327C385.449 628.327 387.562 627.946 389.435 627.183C391.307 626.404 392.791 625.327 393.884 623.952C394.978 622.56 395.525 620.936 395.525 619.08C395.525 617.389 395.053 616.014 394.108 614.953C393.163 613.893 391.921 613.031 390.379 612.368C388.838 611.705 387.173 611.125 385.383 610.628L379.119 608.838C375.141 607.695 371.993 606.062 369.673 603.941C367.353 601.82 366.193 599.044 366.193 595.614C366.193 592.763 366.963 590.277 368.504 588.156C370.062 586.018 372.15 584.361 374.769 583.185C377.403 581.991 380.345 581.395 383.593 581.395C386.874 581.395 389.791 581.983 392.343 583.16C394.895 584.32 396.917 585.911 398.408 587.933C399.917 589.954 400.712 592.25 400.795 594.818H394.829ZM408.843 587.56V582.091H447.024V587.56H431.016V633H424.851V587.56H408.843ZM497.374 607.545C497.374 612.915 496.405 617.555 494.466 621.466C492.527 625.377 489.867 628.393 486.486 630.514C483.106 632.635 479.244 633.696 474.903 633.696C470.561 633.696 466.699 632.635 463.319 630.514C459.938 628.393 457.278 625.377 455.339 621.466C453.4 617.555 452.431 612.915 452.431 607.545C452.431 602.176 453.4 597.536 455.339 593.625C457.278 589.714 459.938 586.698 463.319 584.577C466.699 582.455 470.561 581.395 474.903 581.395C479.244 581.395 483.106 582.455 486.486 584.577C489.867 586.698 492.527 589.714 494.466 593.625C496.405 597.536 497.374 602.176 497.374 607.545ZM491.408 607.545C491.408 603.137 490.671 599.417 489.196 596.384C487.738 593.352 485.757 591.056 483.255 589.499C480.769 587.941 477.985 587.162 474.903 587.162C471.82 587.162 469.028 587.941 466.525 589.499C464.04 591.056 462.059 593.352 460.584 596.384C459.126 599.417 458.397 603.137 458.397 607.545C458.397 611.954 459.126 615.674 460.584 618.707C462.059 621.739 464.04 624.035 466.525 625.592C469.028 627.15 471.82 627.929 474.903 627.929C477.985 627.929 480.769 627.15 483.255 625.592C485.757 624.035 487.738 621.739 489.196 618.707C490.671 615.674 491.408 611.954 491.408 607.545Z" fill="white"/>
</g>
<defs>
<clipPath id="clip0_483_16">
<rect width="500" height="650" fill="white"/>
</clipPath>
</defs>
</svg>
