<svg width="20" height="22" viewBox="0 0 20 22" fill="none" xmlns="http://www.w3.org/2000/svg">
<path d="M10 12.1C10.3542 12.1 10.6513 11.9944 10.8912 11.7832C11.1312 11.572 11.2508 11.3109 11.25 11V7.7C11.25 7.38833 11.13 7.1269 10.89 6.9157C10.65 6.7045 10.3533 6.59927 10 6.6C9.64583 6.6 9.34875 6.7056 9.10875 6.9168C8.86875 7.128 8.74917 7.38907 8.75 7.7V11C8.75 11.3117 8.87 11.5731 9.11 11.7843C9.35 11.9955 9.64667 12.1007 10 12.1ZM10 15.4C10.3542 15.4 10.6513 15.2944 10.8912 15.0832C11.1312 14.872 11.2508 14.6109 11.25 14.3C11.25 13.9883 11.13 13.7269 10.89 13.5157C10.65 13.3045 10.3533 13.1993 10 13.2C9.64583 13.2 9.34875 13.3056 9.10875 13.5168C8.86875 13.728 8.74917 13.9891 8.75 14.3C8.75 14.6117 8.87 14.8731 9.11 15.0843C9.35 15.2955 9.64667 15.4007 10 15.4ZM1.25 18.7C0.895837 18.7 0.598754 18.5944 0.358754 18.3832C0.118754 18.172 -0.000829008 17.9109 4.32525e-06 17.6C4.32525e-06 17.2883 0.120004 17.0269 0.360004 16.8157C0.600004 16.6045 0.896671 16.4993 1.25 16.5H2.5V8.8C2.5 7.27833 3.02084 5.92607 4.0625 4.7432C5.10417 3.56033 6.45833 2.78594 8.125 2.42V1.65C8.125 1.19167 8.3075 0.801902 8.6725 0.480702C9.0375 0.159503 9.48 -0.000730827 10 2.50569e-06C10.5208 2.50569e-06 10.9637 0.160602 11.3287 0.481802C11.6937 0.803002 11.8758 1.1924 11.875 1.65V2.42C13.5417 2.78667 14.8958 3.56144 15.9375 4.7443C16.9792 5.92717 17.5 7.27907 17.5 8.8V16.5H18.75C19.1042 16.5 19.4012 16.6056 19.6412 16.8168C19.8812 17.028 20.0008 17.2891 20 17.6C20 17.9117 19.88 18.1731 19.64 18.3843C19.4 18.5955 19.1033 18.7007 18.75 18.7H1.25ZM10 22C9.3125 22 8.72375 21.7844 8.23375 21.3532C7.74375 20.922 7.49917 20.4043 7.5 19.8H12.5C12.5 20.405 12.255 20.9231 11.765 21.3543C11.275 21.7855 10.6867 22.0007 10 22Z" fill="white"/>
</svg>
