<svg width="22" height="22" viewBox="0 0 22 22" fill="none" xmlns="http://www.w3.org/2000/svg">
<path d="M11 0C9.55546 0 8.12506 0.284523 6.79048 0.837325C5.4559 1.39013 4.24327 2.20038 3.22183 3.22183C1.15893 5.28473 0 8.08262 0 11C0 13.9174 1.15893 16.7153 3.22183 18.7782C4.24327 19.7996 5.4559 20.6099 6.79048 21.1627C8.12506 21.7155 9.55546 22 11 22C13.9174 22 16.7153 20.8411 18.7782 18.7782C20.8411 16.7153 22 13.9174 22 11C22 9.55546 21.7155 8.12506 21.1627 6.79048C20.6099 5.4559 19.7996 4.24327 18.7782 3.22183C17.7567 2.20038 16.5441 1.39013 15.2095 0.837325C13.8749 0.284523 12.4445 0 11 0ZM11.2402 20.3354C11.7132 19.3454 8.932 20.35 11 20.35C13.068 20.35 11.077 19.36 11.55 20.35C10.0093 21.5776 12.97 19.8028 11 19.8C8.954 19.8 12.7362 21.5234 11.2402 20.3354ZM17.996 16.313C16.423 14.399 12.606 13.75 11 13.75C9.394 13.75 5.577 14.399 4.004 16.313C2.8338 14.7891 2.19963 12.9214 2.2 11C2.2 6.149 6.149 2.2 11 2.2C15.851 2.2 19.8 6.149 19.8 11C19.8 13.002 19.118 14.85 17.996 16.313ZM11 4.4C8.866 4.4 7.15 6.116 7.15 8.25C7.15 10.384 8.866 12.1 11 12.1C13.134 12.1 14.85 10.384 14.85 8.25C14.85 6.116 13.134 4.4 11 4.4Z" fill="white"/>
</svg>
